HIERARCHY
ROOT Hips
{
  OFFSET 55.0424 85.5207 13.0949
  CHANNELS 6 Xposition Yposition Zposition Zrotation Xrotation Yrotation
  JOINT spine
  {
    OFFSET 0 6.3926 0.367606
    CHANNELS 3 Zrotation Xrotation Yrotation
    JOINT spine1
    {
      OFFSET 0 9.17611 0
      CHANNELS 3 Zrotation Xrotation Yrotation
      JOINT spine2
      {
        OFFSET 0 8.79238 0
        CHANNELS 3 Zrotation Xrotation Yrotation
        JOINT Neck
        {
          OFFSET 0 22.5737 1.07624
          CHANNELS 3 Zrotation Xrotation Yrotation
          JOINT Head
          {
            OFFSET 0 6.82011 0
            CHANNELS 3 Zrotation Xrotation Yrotation
            End Site
            {
              OFFSET 0 16.5085 -5.44427
            }
          }
        }
        JOINT RightShoulder
        {
          OFFSET -3.70221 9.49509 -0.515508
          CHANNELS 3 Zrotation Xrotation Yrotation
          JOINT RightArm
          {
            OFFSET 0 12.4537 0
            CHANNELS 3 Zrotation Xrotation Yrotation
            JOINT RightArmRoll
            {
              OFFSET 0 6.28686 0
              CHANNELS 3 Zrotation Xrotation Yrotation
              JOINT RightForeArm
              {
                OFFSET 0 18.3114 0
                CHANNELS 3 Zrotation Xrotation Yrotation
                JOINT RightForeArmRoll
                {
                  OFFSET 0 7.05482 0
                  CHANNELS 3 Zrotation Xrotation Yrotation
                  JOINT RightHand
                  {
                    OFFSET 0 14.1575 0
                    CHANNELS 3 Zrotation Xrotation Yrotation
                    End Site
                    {
                      OFFSET 0 0 0
                    }
                  }
                }
              }
            }
          }
        }
        JOINT LeftShoulder
        {
          OFFSET 3.70221 9.49509 -0.515508
          CHANNELS 3 Zrotation Xrotation Yrotation
          JOINT LeftArm
          {
            OFFSET 0 12.4537 0
            CHANNELS 3 Zrotation Xrotation Yrotation
            JOINT LeftArmRoll
            {
              OFFSET 0 6.28686 0
              CHANNELS 3 Zrotation Xrotation Yrotation
              JOINT LeftForeArm
              {
                OFFSET 0 18.3114 0
                CHANNELS 3 Zrotation Xrotation Yrotation
                JOINT LeftForeArmRoll
                {
                  OFFSET 0 7.05482 0
                  CHANNELS 3 Zrotation Xrotation Yrotation
                  JOINT LeftHand
                  {
                    OFFSET 0 14.1575 0
                    CHANNELS 3 Zrotation Xrotation Yrotation
                    End Site
                    {
                      OFFSET 0 0 0
                    }
                  }
                }
              }
            }
          }
        }
      }
    }
  }
  JOINT RightUpLeg
  {
    OFFSET -5.66616 -1.03903 -0.87161
    CHANNELS 3 Zrotation Xrotation Yrotation
    JOINT RightUpLegRoll
    {
      OFFSET 0 16.6005 0
      CHANNELS 3 Zrotation Xrotation Yrotation
      JOINT RightLeg
      {
        OFFSET 0 -20.5572 0
        CHANNELS 3 Zrotation Xrotation Yrotation
        JOINT RightLegRoll
        {
          OFFSET 0 20.6244 0
          CHANNELS 3 Zrotation Xrotation Yrotation
          JOINT RightFoot
          {
            OFFSET 0 17.1664 0
            CHANNELS 3 Zrotation Xrotation Yrotation
            JOINT RightToeBase
            {
              OFFSET 0 14.3502 0
              CHANNELS 3 Zrotation Xrotation Yrotation
              End Site
              {
                OFFSET 0.00608252 6.94971 -0.80106
              }
            }
          }
        }
      }
    }
  }
  JOINT LeftUpLeg
  {
    OFFSET 5.66616 -1.03903 -0.87161
    CHANNELS 3 Zrotation Xrotation Yrotation
    JOINT LeftUpLegRoll
    {
      OFFSET 0 16.6006 0
      CHANNELS 3 Zrotation Xrotation Yrotation
      JOINT LeftLeg
      {
        OFFSET 0 20.5571 0
        CHANNELS 3 Zrotation Xrotation Yrotation
        JOINT LeftLegRoll
        {
          OFFSET 0 20.8151 0
          CHANNELS 3 Zrotation Xrotation Yrotation
          JOINT LeftFoot
          {
            OFFSET 0 16.9757 0
            CHANNELS 3 Zrotation Xrotation Yrotation
            JOINT LeftToeBase
            {
              OFFSET 0 14.3502 0
              CHANNELS 3 Zrotation Xrotation Yrotation
              End Site
              {
                OFFSET -0.0272592 6.94971 -0.801061
              }
            }
          }
        }
      }
    }
  }
}
MOTION
Frames: 5
Frame Time: 0.00208333
56.375 84.9986 9.91855 1.81404 0.49032 -11.4665 0.0289761 -0.882137 0.360904 0.0600094 2.23878 0.71836 0.0514445 3.8838 0.717884 -27.1982 23.0436 -4.61899 19.9709 8.21638 -15.5799 26.1888 12.0726 18.2076 111.122 48.1204 7.087 -3.62755e-005 6.65621e-007 -5.2806e-006 175.405 75.8379 -175.215 6.64799e-007 2.38647e-006 -2.99999 8.02892 -4.95144 0.697689 -63.3084 -10.7624 6.70721 -103.747 14.6682 48.1192 -1.23589e-006 -7.62405e-007 3.59159e-006 162.218 54.1907 -130.245 -1.09992e-005 2.7141e-007 2.99998 -8.02902 -4.95148 -0.697665 173.316 5.87428 2.48067 180 7.01557e-015 178.968 176.772 17.4044 179.793 2.32599e-006 -3.99697e-006 0.417864 -25.3281 74.2666 26.7936 8.15599 25.5421 -3.06222 -175.627 8.90137 2.14061 4.54188e-006 -4.6773e-006 -0.851038 -0.0280279 -9.05568 0.70042 -3.27701e-006 -3.04128e-006 0.22055 13.7657 65.4154 -17.7932 -8.13662 25.2346 3.48518 
56.3798 84.9953 9.91403 1.84369 0.471201 -11.3562 0.0353395 -0.868371 0.364962 0.0726742 2.26636 0.725731 0.0640338 3.91137 0.725052 -27.5149 22.8966 -4.61157 20.2571 8.33632 -15.6923 25.5981 12.1784 18.5716 110.815 48.7594 8.0724 -3.62755e-005 6.65621e-007 -5.2806e-006 174.545 76.7025 -174.071 6.64799e-007 2.38647e-006 -2.99999 8.02892 -4.95144 0.697689 -63.4049 -10.9507 6.81523 -103.703 14.6235 48.274 -1.23589e-006 -7.62405e-007 3.59159e-006 162.162 54.2076 -130.111 -1.09992e-005 2.7141e-007 2.99998 -8.02902 -4.95148 -0.697665 173.277 5.87209 2.50929 180 7.01557e-015 178.969 176.763 17.4609 179.795 2.32599e-006 -3.99697e-006 0.418957 -25.3776 74.2982 26.8458 8.15612 25.5439 -3.05945 -175.679 8.92086 2.17888 4.54188e-006 -4.6773e-006 -0.851001 -0.0189717 -9.06432 0.700121 -3.27701e-006 -3.04128e-006 0.219773 13.7722 65.4171 -17.7922 -8.13662 25.2346 3.48518 
56.3858 84.9943 9.91166 1.87415 0.451943 -11.2518 0.0419925 -0.854087 0.368662 0.0859095 2.29497 0.73235 0.0772034 3.93998 0.731458 -27.8416 22.7389 -4.60049 20.5506 8.46093 -15.8031 24.9922 12.2747 18.9374 110.503 49.3999 9.06388 -3.62755e-005 6.65621e-007 -5.2806e-006 173.608 77.5961 -172.87 6.64799e-007 2.38647e-006 -2.99999 8.02892 -4.95144 0.697689 -63.5053 -11.144 6.92547 -103.663 14.5873 48.4184 -1.23589e-006 -7.62405e-007 3.59159e-006 162.111 54.2255 -129.989 -1.09992e-005 2.7141e-007 2.99998 -8.02902 -4.95148 -0.697665 173.237 5.8714 2.53878 180 7.01557e-015 178.969 176.754 17.5168 179.797 2.32599e-006 -3.99697e-006 0.419984 -25.4255 74.3286 26.8963 8.15623 25.5455 -3.05707 -175.731 8.93798 2.21804 4.54188e-006 -4.6773e-006 -0.850966 -0.00915669 -9.07027 0.699875 -3.27701e-006 -3.04128e-006 0.219143 13.7791 65.4174 -17.7906 -8.13662 25.2346 3.48518 
56.3707 84.9873 9.89547 1.90552 0.432648 -11.1536 0.0489869 -0.839266 0.372029 0.099819 2.32465 0.738256 0.0910568 3.96967 0.737139 -28.1798 22.5693 -4.5855 20.8532 8.59075 -15.9125 24.3696 12.3606 19.3048 110.188 50.0418 10.0613 -3.62755e-005 6.65621e-007 -5.2806e-006 172.577 78.5203 -171.597 6.64799e-007 2.38647e-006 -2.99999 8.02892 -4.95144 0.697689 -63.6098 -11.343 7.03834 -103.629 14.5604 48.553 -1.23589e-006 -7.62405e-007 3.59159e-006 162.062 54.2444 -129.88 -1.09992e-005 2.7141e-007 2.99998 -8.02902 -4.95148 -0.697665 173.195 5.87226 2.56924 180 7.01557e-015 178.97 176.744 17.5718 179.799 2.32599e-006 -3.99697e-006 0.420937 -25.4715 74.3576 26.9448 8.15632 25.5468 -3.05512 -175.785 8.95246 2.25824 4.54188e-006 -4.6773e-006 -0.850931 0.00150676 -9.07282 0.699677 -3.27701e-006 -3.04128e-006 0.218695 13.7863 65.4159 -17.7882 -8.13662 25.2346 3.48518 
56.3776 84.9863 9.88591 1.93812 0.412423 -11.0616 0.056211 -0.823577 0.374819 0.114178 2.35607 0.742978 0.105374 4.00108 0.741629 -28.5306 22.3861 -4.5662 21.1651 8.72745 -16.0208 23.731 12.4392 19.677 109.871 50.6927 11.0761 -3.62755e-005 6.65621e-007 -5.2806e-006 171.43 79.4735 -170.217 6.64799e-007 2.38647e-006 -2.99999 8.02892 -4.95144 0.697689 -63.7188 -11.5478 7.15405 -103.596 14.5426 48.6713 -1.23589e-006 -7.62405e-007 3.59159e-006 162.019 54.2646 -129.786 -1.09992e-005 2.7141e-007 2.99998 -8.02902 -4.95148 -0.697665 173.15 5.87469 2.60118 180 7.01558e-015 178.97 176.735 17.6275 179.801 2.32599e-006 -3.99697e-006 0.421827 -25.5166 74.3858 26.9923 8.15639 25.5479 -3.05364 -175.839 8.96418 2.29965 4.54188e-006 -4.6773e-006 -0.850897 0.0130208 -9.07326 0.699547 -3.27701e-006 -3.04128e-006 0.218389 13.7944 65.4133 -17.7854 -8.13662 25.2346 3.48518 
